2999 1000
Papel	0	0	2999	1000	1
lado de fora	0	0	2999	1000	1
parede	-12	-40	3005	1040	1
cortina 3	2418	163	3000	697	1
cortina 1	0	154	637	689	1
quadro	1597	259	1894	380	1
chao	0	716	2999	1040	1
cama 4	347	456	1434	857	1
cama frente 1	-163	556	2062	1377	1
mc	1139	601	1313	639	1
cobertor	1177	588	1378	668	1
cama 3	677	579	997	891	1
cobertor	1197	734	1376	882	1
cama 5	1514	593	1825	855	1
cama tras 1	-198	561	417	897	1
cama 1	-180	624	435	960	1
cama 7	2546	591	3089	988	1
cama tras 2	119	570	531	967	1
cama 2	97	624	848	960	1
cama 6	2201	596	2952	932	1
cama frente 2	1795	797	3454	1552	1
Camada 6	564	508	1222	879	1
Camada 6 Copiar	1411	530	2039	884	1
Camada 5	1153	-40	1397	1006	1
luz	836	218	1814	1000	1
sombra geral	-27	-18	3010	1004	1
porta 2	2025	371	2666	791	1
porta 1	2000	346	2711	797	1
Foto 1	1151	624	1315	894	0